PathFileType	4	(X/Y/Z)	9_coords_data.trc
DataRate	CameraRate	NumFrames	NumMarkers	Units	OrigDataRate	OrigDataStartFrame	OrigNumFrames
30.0	30.0	9	21	m	30.0	29	47
Frame#	Time	THUMB_TIP	THUMB_IP	THUMB_MCP	THUMB_CMC	INDEX_TIP	INDEX_DIP	INDEX_PIP	INDEX_MCP	MIDDLE_TIP	MIDDLE_DIP	MIDDLE_PIP	MIDDLE_MCP	RING_TIP	RING_DIP	RING_PIP	RING_MCP	PINKY_TIP	PINKY_DIP	PINKY_PIP	PINKY_MCP	WRIST
X1	Y1	Z1	X2	Y2	Z2	X3	Y3	Z3	X4	Y4	Z4	X5	Y5	Z5	X6	Y6	Z6	X7	Y7	Z7	X8	Y8	Z8	X9	Y9	Z9	X10	Y10	Z10	X11	Y11	Z11	X12	Y12	Z12	X13	Y13	Z13	X14	Y14	Z14	X15	Y15	Z15	X16	Y16	Z16	X17	Y17	Z17	X18	Y18	Z18	X19	Y19	Z19	X20	Y20	Z20	X21	Y21	Z21
28	0.9333333333333333	0.04869089889526367	-0.01941510009765625	1.040469970703125	0.026808700561523437	-0.02097640037536621	1.057300048828125	0.002209630012512207	-0.022032400131225587	1.0743800048828125	-0.020481199264526368	-0.005201350212097168	1.088	0.046287799835205076	0.001308799982070922	0.9844000244140625	0.02664900016784668	-0.00619527006149292	0.990322998046875	0.005497099876403809	-0.013356599807739258	0.9979669799804688	-0.019488300323486328	-0.01991360092163086	1.0299000244140626	0.05244359970092773	0.028135900497436524	0.9940449829101563	0.030271799087524413	0.022059600830078126	0.9935759887695312	0.000611023008823394	0.014725700378417968	0.99589697265625	-0.02884079933166504	0.002411580085754394	1.025760009765625	0.047363601684570315	0.04760440063476563	1.0108200073242188	0.02501140022277832	0.04480379867553711	1.010239990234375	-0.004325019836425781	0.038952598571777346	1.0106199951171875	-0.03395159912109375	0.02398940086364746	1.0333199462890625	0.020079700469970704	0.06455370330810548	1.0259100341796874	0.0017171800136566162	0.06322689819335937	1.0282900390625	-0.017346900939941408	0.05837329864501953	1.0329599609375	-0.036573001861572266	0.043464900970458985	1.0491300048828125	-0.05739590072631836	-0.000803372979164123	1.10952001953125
29	0.9666666666666667	0.04970330047607422	-0.0159753999710083	1.0416600341796876	0.027362300872802735	-0.017217800140380858	1.05868994140625	0.002566210031509399	-0.01811709976196289	1.0757900390625	-0.02054640007019043	-0.001681900024414062	1.08931005859375	0.04860770034790039	0.008026849746704102	0.9875430297851563	0.029003599166870116	4.932130128145201e-05	0.9927670288085938	0.007816709995269776	-0.007636209964752197	0.9998040161132813	-0.017830299377441405	-0.015198100090026855	1.0308199462890626	0.05403099822998047	0.03466379928588867	0.9970150146484374	0.03197109985351562	0.02802470016479492	0.9960759887695313	0.002398920059204101	0.020167299270629883	0.9977919921875	-0.027448699951171874	0.0069797301292419435	1.02681005859375	0.047875499725341795	0.05378670120239258	1.0136799926757813	0.025601699829101564	0.050600799560546875	1.0125900268554688	-0.003612129926681518	0.04420130157470703	1.0125599975585937	-0.03317259979248047	0.02849370002746582	1.034489990234375	0.019386100769042968	0.07047540283203126	1.0286199951171875	0.001123610019683838	0.0688323974609375	1.0305699462890625	-0.01784189987182617	0.06363779830932617	1.034949951171875	-0.036540000915527344	0.047749401092529294	1.0505999755859374	-0.057537899017333985	0.00239119005203247	1.1101300048828124
30	1.0	0.050272899627685545	-0.011213899612426758	1.042800048828125	0.027843799591064453	-0.012640299797058106	1.0596600341796876	0.0031120600700378417	-0.013982000350952149	1.075949951171875	-0.020617399215698242	0.0022378299236297597	1.09022998046875	0.05021239852905274	0.014874799728393555	0.9902269897460938	0.030534400939941406	0.006381740093231201	0.9947769775390625	0.009354029655456543	-0.0018057899475097652	1.00125	-0.016636499404907225	-0.010535099983215331	1.0318199462890625	0.05485599899291992	0.04126839828491211	0.9994630126953125	0.032920501708984376	0.03428329849243164	0.9982449951171875	0.003513190031051635	0.025802600860595704	0.9995159912109375	-0.02656060028076172	0.011624799728393555	1.02752001953125	0.04803770065307617	0.05991230010986328	1.0160499877929687	0.025740100860595704	0.05638610076904297	1.0146400146484376	-0.003348619937896728	0.0494374008178711	1.014219970703125	-0.03275130081176758	0.03308169937133789	1.035550048828125	0.019002399444580077	0.07587400054931641	1.0311800537109375	0.0006873570084571831	0.07394879913330078	1.03277001953125	-0.0183164005279541	0.0683364028930664	1.036739990234375	-0.03676729965209961	0.051995700836181644	1.05202001953125	-0.05743899917602539	0.005679220199584961	1.110010009765625
31	1.0333333333333334	0.05055229949951172	-0.006232840061187744	1.0433299560546876	0.028300899505615235	-0.008130729675292969	1.0600799560546874	0.0033055000305175783	-0.00988893985748291	1.07706005859375	-0.020491300582885744	0.005696370124816895	1.0919200439453125	0.0505536003112793	0.020877500534057618	0.9917490234375	0.031000499725341798	0.01202589988708496	0.9960560302734375	0.00979403018951416	0.003349230051040649	1.0020900268554687	-0.016136199951171874	-0.006307429790496826	1.0324000244140625	0.05432070159912109	0.047195301055908204	0.9994130249023437	0.03254899978637695	0.03972769927978516	0.9987449951171875	0.003323410034179687	0.030710899353027343	1.0003900146484375	-0.02635499954223633	0.015720199584960938	1.02822998046875	0.047043701171875	0.06567639923095703	1.0161300048828126	0.02474279975891113	0.06154079818725586	1.0151599731445313	-0.004105199813842773	0.054072399139404294	1.0153800048828125	-0.032963699340820315	0.036898700714111325	1.0363699951171874	0.01822089958190918	0.08048560333251953	1.0325899658203126	-0.000106279000639915	0.07829910278320312	1.0341500244140625	-0.019028299331665038	0.0724083023071289	1.0379300537109375	-0.03732979965209961	0.05573989868164062	1.0528199462890624	-0.057358898162841794	0.008812919616699218	1.1106700439453125
32	1.0666666666666667	0.05039810180664062	-0.001790500044822692	1.0431500244140626	0.02821339988708496	-0.004207320213317871	1.0601099853515625	0.003422399997711181	-0.006432040214538574	1.077300048828125	-0.020627099990844725	0.008933759689331055	1.0921500244140625	0.04966540145874023	0.025204700469970705	0.9917369995117188	0.030201799392700197	0.01600749969482422	0.9960789794921875	0.009177240371704101	0.007002089977264404	1.0023499755859375	-0.016515399932861326	-0.003011240005493164	1.0329200439453126	0.05287770080566406	0.05163050079345703	0.9983510131835938	0.03119350051879883	0.04368519973754883	0.9983699951171875	0.0021965699195861813	0.03422660064697266	1.0006099853515624	-0.02698929977416992	0.01884090042114258	1.0286400146484376	0.04523860168457031	0.0701155014038086	1.0144500122070312	0.022885099411010742	0.06549019622802735	1.0140900268554687	-0.005628139972686768	0.05741540145874023	1.0151500244140625	-0.03369070053100586	0.04011320114135742	1.0369300537109376	0.016615699768066407	0.08428309631347657	1.0323299560546875	-0.001668140053749084	0.08171209716796875	1.03418994140625	-0.020425600051879884	0.07557369995117187	1.0381600341796875	-0.03818220138549805	0.058714099884033207	1.05347998046875	-0.05718629837036133	0.011460800170898438	1.11125
33	1.1	0.04957099914550781	0.001896849989891052	1.0423199462890624	0.02781399917602539	-0.000880250990390777	1.0595999755859375	0.0032832000255584707	-0.003461859941482544	1.077239990234375	-0.020312700271606445	0.011480600357055663	1.0918399658203124	0.04827410125732422	0.02874139976501465	0.9916199951171875	0.029072399139404296	0.019276800155639647	0.9960009765625	0.00816475009918213	0.010025799751281738	1.0022999877929688	-0.017094600677490236	-0.000468051999807357	1.0328599853515625	0.05095190048217774	0.05520309829711914	0.9972310180664062	0.029371299743652345	0.04694900131225586	0.9976539916992188	0.000626254022121429	0.03706869888305664	1.0004299926757811	-0.027927499771118164	0.02125119972229004	1.0288299560546874	0.04302989959716797	0.07382050323486328	1.0121900024414063	0.020766000747680664	0.068643798828125	1.0127999877929688	-0.007607329845428467	0.05999729919433594	1.0148499755859375	-0.03479790115356445	0.042402000427246095	1.03725	0.014899999618530273	0.08716470336914063	1.0321800537109376	-0.0033330600261688233	0.08435959625244141	1.034239990234375	-0.02191990089416504	0.0779936981201172	1.03852001953125	-0.0392421989440918	0.06093299865722656	1.0538699951171875	-0.05715769958496094	0.013598400115966797	1.1119599609375
34	1.1333333333333333	0.04833890151977539	0.005604209899902343	1.0408499755859375	0.026927600860595702	0.00235440993309021	1.05877001953125	0.002819540023803711	-0.001152959942817688	1.0768199462890624	-0.02101259994506836	0.013313599586486816	1.09231005859375	0.04634450149536133	0.03173780059814453	0.9907750244140625	0.027411699295043945	0.022050100326538084	0.9954180297851563	0.006593770027160645	0.012438300132751465	1.0018099975585937	-0.018114200592041017	0.001488330006599426	1.032550048828125	0.048310501098632816	0.05811600112915039	0.9950869750976562	0.026956600189208986	0.049622501373291016	0.9963499755859375	-0.0015512299537658691	0.03924509811401367	0.9996690063476562	-0.0291781005859375	0.02310820007324219	1.0288699951171876	0.04040710067749023	0.07664730072021485	1.0100399780273437	0.01819659996032715	0.07108190155029297	1.011239990234375	-0.009873660087585449	0.06206119918823242	1.01427001953125	-0.03619729995727539	0.04412379837036133	1.037219970703125	0.012769499778747558	0.0895647964477539	1.03125	-0.0053901000022888185	0.08642759704589843	1.03368994140625	-0.02378660011291504	0.07985189819335937	1.0382900390625	-0.040459400177001954	0.06256539916992188	1.0540799560546874	-0.057014999389648435	0.014865500450134277	1.112199951171875
35	1.1666666666666667	0.04670249938964844	0.008901399612426758	1.0386600341796874	0.025743499755859375	0.004780189990997314	1.056969970703125	0.0021546599864959706	0.000563212990760803	1.075800048828125	-0.02157279968261719	0.014501999855041504	1.09193994140625	0.043874801635742186	0.034130401611328125	0.98952099609375	0.025053699493408202	0.024167299270629883	0.9943200073242188	0.004381450176239013	0.014254599571228028	1.0009600219726562	-0.019407499313354493	0.002947590112686157	1.032219970703125	0.04547480010986328	0.06044760131835938	0.9933369750976563	0.024224199295043946	0.05166579818725586	0.9950919799804687	-0.004000639915466309	0.04093489837646484	0.9990339965820313	-0.030938100814819337	0.024323400497436524	1.0287900390625	0.03741999816894531	0.07894640350341797	1.0083099975585939	0.015399399757385255	0.07299289703369141	1.0102899780273438	-0.012524100303649902	0.06354249954223633	1.0138300170898438	-0.037886501312255856	0.04531869888305664	1.0373699951171875	0.0097506103515625	0.09174720001220703	1.0300899658203124	-0.00836001968383789	0.08822329711914062	1.0331600341796876	-0.026288200378417968	0.08130339813232422	1.038219970703125	-0.041799900054931644	0.06372280120849609	1.054239990234375	-0.05740290069580078	0.015954099655151367	1.1121099853515626
36	1.2	0.044442401885986325	0.011379899978637696	1.0355999755859375	0.02414579963684082	0.006394480228424072	1.054780029296875	0.00088359397649765	0.0016652400493621822	1.074949951171875	-0.021735300064086915	0.014710200309753419	1.090800048828125	0.04018529891967773	0.036418201446533204	0.987280029296875	0.02159589958190918	0.02614189910888672	0.9923319702148438	0.001377009987831115	0.015963700294494627	0.9994569702148437	-0.021195600509643555	0.00400193977355957	1.03143994140625	0.041463199615478515	0.06300249862670898	0.9908289794921875	0.020489700317382814	0.05381280136108398	0.99322802734375	-0.007338520050048828	0.04254380035400391	0.99797900390625	-0.033079299926757816	0.025384599685668946	1.028280029296875	0.03339519882202149	0.0814843978881836	1.0063800048828124	0.011340700149536132	0.07504190063476562	1.0089299926757813	-0.016064800262451173	0.0650613021850586	1.013280029296875	-0.04016289901733398	0.04629579925537109	1.03731005859375	0.0038130800724029542	0.0958311996459961	1.0275799560546874	-0.01395989990234375	0.09113960266113282	1.0319599609375	-0.030961700439453125	0.08319499969482422	1.0381600341796875	-0.044327598571777344	0.06461620330810547	1.0545899658203124	-0.05738729858398438	0.016245800018310545	1.11256005859375
